# xmcd CD database file
# Copyright (C) 1993-1998 Ti Kan
# 
# Track frame offsets:
#     180
#     13048
#     29909
#     41426
#     53951
#     72958
#     84321
#     98390
#     108863
#     128186
#     139320
#     151459
#     163501
#     177730
# 
# Disc length: 2681 seconds
# 
# Revision: 1
# Processed by: cddbd v1.4b41PL1 Copyright (c) Steve Scherf et al.
# Submitted via: DiscPlay 4.0.4
# 
DISCID=ba0a770e
DTITLE=Big Foot Chester - The Devil in Me
DYEAR=1900
DGENRE=
TTITLE0=harpoon man
TTITLE1=who'll be next
TTITLE2=obviously 5 believers
TTITLE3=monkey dog
TTITLE4=night driver
TTITLE5=bad reruns
TTITLE6=keep it to yourself
TTITLE7=don't worry 'bout me
TTITLE8=that's the bag i'm in
TTITLE9=it don't take too much
TTITLE10=that man is bad news
TTITLE11=i've got a devil in me
TTITLE12=hellbound train
TTITLE13=don't look at the hanged man
EXTD=
EXTT0=
EXTT1=
EXTT2=
EXTT3=
EXTT4=
EXTT5=
EXTT6=
EXTT7=
EXTT8=
EXTT9=
EXTT10=
EXTT11=
EXTT12=
EXTT13=
PLAYORDER=
